# xmcd CD database file
#
# Track frame offsets:
#	150
#	16765
#	32307
#	52875
#	70675
#	97237
#	123432
#	141792
#	153962
#	172982
#	194375
#	209642
#	226730
#	241512
#	261032
#	276905
#	288365
#	303690
#
# Disc length: 4253 seconds
#
# Revision: 1
# Processed by: cddbd v1.5.2PL0 Copyright (c) Steve Scherf et al.
# Submitted via: CDex 1.51
#
DISCID=f1109b12
DTITLE=Old School Band - Compilation 1970-1983
DYEAR=1900
DGENRE=Jazz
TTITLE0=Snake hips
TTITLE1=The doorrmhouse
TTITLE2=someday sweetheart
TTITLE3=open house
TTITLE4=bimbo
TTITLE5=trouble in mind
TTITLE6=jersey lighting
TTITLE7=saturday night function
TTITLE8=riverboat shuffle
TTITLE9=somebody stole my gal
TTITLE10=gatemouth blues
TTITLE11=candy lips
TTITLE12=egyptian fantasy
TTITLE13=shine
TTITLE14=sidewalk blues
TTITLE15=just a closer walk with thee
TTITLE16=margie
TTITLE17=savoy blues
EXTD=
EXTT0=
EXTT1=
EXTT2=
EXTT3=
EXTT4=
EXTT5=
EXTT6=
EXTT7=
EXTT8=
EXTT9=
EXTT10=
EXTT11=
EXTT12=
EXTT13=
EXTT14=
EXTT15=
EXTT16=
EXTT17=
PLAYORDER=
